<svg
    viewBox="0 0 100 100"
    fill="none"
    xmlns="http://www.w3.org/2000/svg"
> {/* Background circle for depth */} <circle cx="50" cy="50"
        r="40" fill="#E87C73" opacity="0.15" /> {/* House roof */} <path
        d="M50 20 L20 45 L25 45 L25 75 C25 78 27 80 30 80 L70 80 C73 80 75 78 75 75 L75 45 L80 45 Z"
        fill="#E87C73"
    /> {/* House body */} <rect x="28" y="45" width="44" height="32" rx="4"
        fill="#B7E4C7" /> {/* Door */} <rect
        x="42"
        y="60"
        width="16"
        height="20"
        rx="8"
        fill="#E87C73"
        opacity="0.3"
    /> {/* Heart in the center */} <path
        d="M50 42 C48 40, 45 40, 43 42 C41 44, 41 47, 43 49 L50 56 L57 49 C59 47, 59 44, 57 42 C55 40, 52 40, 50 42 Z"
        fill="#FFF5EB"
    /> {/* Chimney */} <rect
        x="60"
        y="28"
        width="8"
        height="12"
        rx="2"
        fill="#E87C73"
        opacity="0.8"
    />
</svg>